<svg version="1.1" id="Layer_1" xmlns="http://www.w3.org/2000/svg" x="0" y="0" viewBox="0 0 1280 780.1" xml:space="preserve"><style>.st1{fill:#373737}.st2{fill:#646464}.st3{fill:#71b37c}.st4{fill:#fff}.st6{fill:#e7616a}.st8{fill:#69a0ef}.st9{fill:#8fc899}.st10{fill:#4d4d4d}.st12{fill:#ffaa4b}.st14{fill:#cfd4d7}</style><path d="M0 0h1280v66.4H0z"/><path fill="#202126" d="M0 66.4h1279.8v713.7H0z"/><path class="st1" d="M15.9 483.8h616v280h-616zM15.9 82H316v197.3H15.9zM331.9 82H632v197.3H331.9zM647.9 82H948v197.3H647.9zM963.8 82h300.1v197.3H963.8z"/><path class="st2" d="M249.2 172.5l-32.3 32.3c-10.7-19.5-31.4-32.8-55.3-32.8-1.3 0-2.6.1-3.9.1l-8.5-44c4.1-.5 8.2-.7 12.4-.7 36.1 0 68.1 17.8 87.6 45.1z"/><path class="st3" d="M149.1 173.3c-18.5 3.7-34 15.5-42.8 31.6L74 172.5c15.6-21.9 39.2-37.6 66.5-43l8.6 43.8z"/><path class="st4" d="M165.9 236.9c-5.2 1-10.3-2.4-11.3-7.6-.7-3.7.8-7.3 3.5-9.4l-9.1-46.7-8.5-43.8-3.8-19.5 8.5-1.7 3.8 19.9 8.5 44 9 46.1c3.4 1 6.1 3.7 6.8 7.4 1.2 5.3-2.2 10.3-7.4 11.3z"/><path class="st2" d="M561.5 172.5l-32.3 32.3c-3.5-6.4-8-12.1-13.4-16.9l28.9-33.9c6.3 5.5 11.9 11.7 16.8 18.5z"/><path d="M544.7 154l-28.9 34c-2.2-1.9-4.5-3.7-6.9-5.4l.6-.6 28.5-33.4c2.3 1.7 4.5 3.5 6.7 5.4z" fill="#e14d57"/><path class="st3" d="M537.9 148.6L509.5 182l-.6.6c-10-6.7-22-10.6-34.9-10.6-1.3 0-2.6.1-3.9.1-2.9.2-5.8.6-8.6 1.1-18.5 3.7-34 15.5-42.8 31.6l-32.3-32.3c15.6-21.9 39.2-37.6 66.5-43 2.8-.6 5.7-1 8.6-1.3 4.1-.5 8.2-.7 12.4-.7 24-.1 46.1 7.8 64 21.1z"/><path class="st4" d="M557.9 138.5l-13.1 15.4-.1.1-28.9 34-.1.1-30.5 35.8c1.4 3.2.9 7.1-1.5 9.9-3.5 4-9.5 4.5-13.6 1.1-4-3.4-4.6-9.5-1.1-13.6 2.4-2.8 6.1-3.9 9.6-3.1l30.3-35.5.6-.6 28.5-33.4.5-.5 12.9-15.2 6.5 5.5z"/><path class="st3" d="M813 129.9l-10.9 42.2-.3 1.1c-3.8-.8-7.8-1.1-11.9-1.1-1.3 0-2.6.1-3.9.1-2.9.2-5.8.6-8.6 1.1-18.5 3.7-34 15.5-42.8 31.6l-32.3-32.3c15.6-21.9 39.2-37.6 66.5-43 2.8-.6 5.7-1 8.6-1.3 4.1-.5 8.2-.7 12.4-.7 8-.2 15.7.7 23.2 2.3z"/><path class="st2" d="M877.5 172.5l-32.3 32.3c-7.5-13.7-20-24.3-35-29.4-2.7-1-5.5-1.7-8.4-2.2l.3-1.1 10.9-42.2c2.8.6 5.7 1.4 8.4 2.2 22.8 7 42.5 21.4 56.1 40.4z"/><path class="st4" d="M826.6 111.8l-5.1 19.6-.2.7-11 42.7-.2.6-11.5 44.9c2.6 2.3 3.9 6 3 9.6-1.3 5.2-6.6 8.2-11.7 6.9-5.2-1.3-8.3-6.5-6.9-11.7.9-3.6 3.8-6.2 7.2-7l11.6-45 .3-1.1 10.9-42.2.3-1 5-19.3 8.3 2.3z"/><path class="st2" d="M1201.4 172.7l-32.3 32.3c-10.7-19.5-31.4-32.8-55.3-32.8-1.3 0-2.6.1-3.9.1-2.9.2-5.8.6-8.6 1.1-4.3.9-8.4 2.2-12.4 3.9l-23.5-36.3-1-1.5c8.8-4.6 18.3-7.9 28.3-9.9 2.8-.6 5.7-1 8.6-1.3 4.1-.5 8.2-.7 12.4-.7 36.3 0 68.2 17.8 87.7 45.1z"/><path class="st6" d="M1081.2 181.3c-9.5 5.8-17.3 13.9-22.6 23.7l-32.3-32.3c8.2-11.5 18.6-21.3 30.7-28.8l1 1.6 23.2 35.8z"/><path class="st3" d="M1088.9 177.3c-2.7 1.1-5.3 2.5-7.8 4l-23.2-35.9-1-1.6c2.4-1.5 5-3 7.6-4.3l1 1.5 23.4 36.3z"/><path class="st4" d="M1121.5 235.7c-4.4 2.9-10.4 1.7-13.3-2.8-2-3.1-2-7-.2-10.1l-25.8-39.9-1-1.6-23.2-35.9-1-1.6-9.8-15.1 7.3-4.7 10 15.5 1 1.5 23.5 36.3.9 1.3 25.5 39.5c3.5-.4 7 1.2 9.1 4.3 2.8 4.5 1.5 10.4-3 13.3z"/><path d="M133.8 28.5c.5.5 1.4.1 1.4-.5v-9.7c0-.6-.5-1-1-1h-9.7c-.6 0-1.1.8-.5 1.3.4.5 9.2 9.3 9.8 9.9z" fill="#df5857"/><path class="st4" d="M16 18.2c0-.4.4-.8.8-.8H21c.4 0 .8.3.8.8v9.4c0 .4.2.5.4.1l5.7-9.6c.2-.4.7-.7 1.2-.7h4.3c.4 0 .6.3.3.6L28 26.4c-.2.3-.3 1-.1 1.3l6.6 15.1c.2.4 0 .7-.5.7h-4.5c-.4 0-.9-.3-1.1-.7l-4.1-10.6c-.2-.4-.5-.4-.7-.1L22.3 34c-.2.3-.4 1-.4 1.4v7.3c0 .4-.4.8-.8.8h-4.3c-.4 0-.8-.3-.8-.8V18.2zM35.5 18.2c0-.4.4-.8.8-.8h3.9c.4 0 .8.3.8.8v24.6c0 .4-.4.8-.8.8h-3.9c-.4 0-.8-.3-.8-.8V18.2zM48.9 21.8c0 .4-.4.8-.8.8h-4c-.4 0-.8-.3-.8-.8V18c0-.4.4-.8.8-.8h4c.4 0 .8.3.8.8v3.8zm-5.5 3.1c0-.4.4-.8.8-.8h3.9c.4 0 .8.3.8.8v17.8c0 .4-.4.8-.8.8h-3.9c-.4 0-.8-.3-.8-.8V24.9zM51.2 24.9c0-.4.4-.8.8-.8h3.5c.4 0 .8.3.8.8v1.3c0 .4.4.5.5.2.4-1 1.9-2.5 4-2.5 1.8 0 3.3.8 4.5 2.4 1.2 1.6 1.8 4 1.8 7.2 0 3.4-.6 6-1.8 7.7-1.2 1.7-2.8 2.6-4.9 2.6-1.5 0-2.8-.6-3.8-1.7v7.2c0 .4-.4.8-.8.8H52c-.4 0-.8-.3-.8-.8V24.9zm5.4 9.9v1.5s.1 2.3.4 2.8c.3.6.9.8 1.9.8.8 0 1.4-.4 1.8-1.1.4-.7.6-2.5.6-5.4 0-2.4-.2-4-.5-4.8-.3-.8-.9-1.3-1.8-1.3-.7 0-1.3.3-1.7.8-.5.5-.7 1.8-.7 3.7v3zM75.1 24.2v18.6c0 .4-.4.8-.8.8h-3.7c-.4 0-.8-.3-.8-.8V23.5s.1-2.6.4-3.5c.3-.9.9-1.8 1.9-2.5.9-.7 2.2-1.1 3.9-1.1.7 0 1.4.1 2.1.2.4.1.7.3.7.7V20c0 .4-.4.7-.8.7h-.5c-1.1 0-1.7.2-2 .7-.3.4-.4 1.3-.4 2.8zM94.4 33.8c0 6.7-2.7 10.1-8 10.1s-8-3.4-8-10.1c0-6.7 2.7-10.1 8-10.1 5.4.1 8 3.4 8 10.1zm-5.6.1c0-2.5-.2-4.1-.5-5-.3-.9-.9-1.3-1.8-1.3-.8 0-1.4.4-1.8 1.2-.4.8-.5 2.5-.5 5.1 0 2.4.2 4 .5 4.9.3.9.9 1.4 1.9 1.4.9 0 1.5-.5 1.8-1.4.2-.9.4-2.6.4-4.9zM96.2 18.2c0-.4.4-.8.8-.8h3.9c.4 0 .8.3.8.8v24.6c0 .4-.4.8-.8.8H97c-.4 0-.8-.3-.8-.8V18.2zM109.6 21.8c0 .4-.4.8-.8.8h-4c-.4 0-.8-.3-.8-.8V18c0-.4.3-.8.8-.8h4c.4 0 .8.3.8.8v3.8zm-5.5 3.1c0-.4.4-.8.8-.8h3.9c.4 0 .8.3.8.8v17.8c0 .4-.4.8-.8.8h-3.9c-.4 0-.8-.3-.8-.8V24.9zM127.4 33.8c0 6.7-2.7 10.1-8 10.1s-8-3.4-8-10.1c0-6.7 2.7-10.1 8-10.1 5.3.1 8 3.4 8 10.1zm-5.7.1c0-2.5-.2-4.1-.5-5-.3-.9-.9-1.3-1.8-1.3-.8 0-1.4.4-1.8 1.2-.4.8-.5 2.5-.5 5.1 0 2.4.2 4 .5 4.9.3.9.9 1.4 1.9 1.4.9 0 1.5-.5 1.8-1.4.2-.9.4-2.6.4-4.9z"/><path class="st4" d="M78.5 27.7c0 .4-.4.8-.8.8h-9.4c-.4 0-.8-.3-.8-.8V25c0-.4.4-.8.8-.8h9.4c.4 0 .8.3.8.8v2.7z"/><path class="st1" d="M15.9 294.9h616v173h-616zM647.9 295.3h300.4v216.9H647.9z"/><path class="st8" d="M502.7 592.1h15.6v3.5h-15.6zM521.8 587.5h15.6v8.1h-15.6zM540.9 584.2h15.6v11.4h-15.6zM560 586.3h15.6v9.3H560zM579.1 577.3h15.6v18.3h-15.6zM502.7 634.6h15.6v5.7h-15.6zM521.8 637.4h15.6v2.8h-15.6zM540.9 635.6h15.6v4.6h-15.6zM560 634.6h15.6v5.7H560zM579.1 635.6h15.6v4.6h-15.6zM502.7 673.4h15.6V685h-15.6zM521.8 674.7h15.6V685h-15.6zM540.9 676.2h15.6v8.8h-15.6zM560 677.7h15.6v7.4H560zM579.1 679.2h15.6v5.8h-15.6zM502.7 715.6h15.6v14.1h-15.6zM521.8 714.2h15.6v15.6h-15.6zM540.9 721.6h15.6v8.1h-15.6zM560 720.5h15.6v9.3H560zM579.1 715.6h15.6v14.1h-15.6z"/><path class="st1" d="M963.4 295.3h300.4v216.9H963.4zM647.9 528.1h616v235.6h-616z"/><path class="st9" d="M999.5 393.3h35.6v65.1h-35.6z"/><path class="st8" d="M1035.1 338h35.6v120.3h-35.6z"/><path class="st9" d="M1086.2 364.1h35.6v94.3h-35.6z"/><path class="st8" d="M1121.8 338h35.6v120.3h-35.6zM1208.5 400.6h35.6v57.7h-35.6z"/><path class="st9" d="M1172.9 376.5h35.6v81.9h-35.6z"/><path class="st10" d="M976.4 476.8h274.5v8.2H976.4z"/><path class="st10" d="M976.4 313.6h8.2v170.7h-8.2zM42.5 445.3h562.8v8.4H42.5z"/><path fill="#3f3f3f" d="M41.4 499.7h565.1v53.9H41.4z"/><path class="st10" d="M41.4 499.7h3.2v248.1h-3.2z"/><path class="st10" d="M41.4 744.6h565.1v3.2H41.4zM41.4 499.7h565.1v3.2H41.4zM41.4 552h565.1v3.2H41.4z"/><path class="st10" d="M153.7 499.7h3.2v248.1h-3.2zM266.1 499.7h3.2v248.1h-3.2zM378.5 499.7h3.2v248.1h-3.2zM490.9 499.7h3.2v248.1h-3.2zM603.3 499.7h3.2v248.1h-3.2z"/><circle class="st12" cx="74" cy="415.8" r="10.1"/><circle class="st12" cx="180.7" cy="328.8" r="10.1"/><circle class="st12" cx="249.4" cy="402.6" r="10.1"/><circle class="st12" cx="329.8" cy="333.6" r="10.1"/><circle class="st12" cx="452.1" cy="412.7" r="10.1"/><circle class="st12" cx="583.2" cy="328.8" r="10.1"/><path fill="none" stroke="#ffaa4b" stroke-width="3.019" stroke-linejoin="round" stroke-miterlimit="10" d="M74 415.8l106.8-87 68.6 76.2 80.4-73.5 122.9 84.3 132.9-87"/><path class="st12" d="M211 595.9l-12.4-12.4c-.3-.3-.3-.7 0-1l12.4-12.4c.3-.3.7-.3 1 0l12.4 12.4c.3.3.3.7 0 1L212 595.9c-.2.2-.7.2-1 0zM211 687.8l-12.4-12.4c-.3-.3-.3-.7 0-1L211 662c.3-.3.7-.3 1 0l12.4 12.4c.3.3.3.7 0 1L212 687.8c-.2.2-.7.2-1 0zM211 733.7l-12.4-12.4c-.3-.3-.3-.7 0-1L211 708c.3-.3.7-.3 1 0l12.4 12.4c.3.3.3.7 0 1L212 733.7c-.2.3-.7.3-1 0z"/><circle class="st9" cx="211.5" cy="628.9" r="12.5"/><path class="st9" d="M438.4 574.1l10.3 17.8c.9 1.6-.2 3.6-2.1 3.6H426c-1.9 0-3-2-2.1-3.6l10.3-17.8c.9-1.7 3.3-1.7 4.2 0z"/><path class="st6" d="M434.2 639.1l-10.3-17.8c-.9-1.6.2-3.6 2.1-3.6h20.6c1.9 0 3 2 2.1 3.6l-10.3 17.8c-.9 1.6-3.3 1.6-4.2 0zM434.2 683.8L423.9 666c-.9-1.6.2-3.6 2.1-3.6h20.6c1.9 0 3 2 2.1 3.6l-10.3 17.8c-.9 1.6-3.3 1.6-4.2 0z"/><path class="st9" d="M438.4 708.3l10.3 17.8c.9 1.6-.2 3.6-2.1 3.6H426c-1.9 0-3-2-2.1-3.6l10.3-17.8c.9-1.7 3.3-1.7 4.2 0z"/><g><path class="st14" d="M345.4 577.6c.8 0 1.5.1 2.1.4.6.2 1 .6 1.4 1s.6.9.7 1.5c.1.6.2 1.2.2 2v.8c0 .7-.1 1.4-.2 2-.2.6-.4 1.1-.8 1.6s-.8.8-1.4 1c-.6.2-1.2.4-2.1.4-.9 0-1.6-.1-2.2-.4-.6-.3-1-.6-1.4-1.1-.3-.4-.6-1-.7-1.6-.1-.6-.2-1.2-.2-1.9v-.8c0-.7.1-1.4.2-2 .2-.6.4-1.1.8-1.5.4-.4.8-.8 1.4-1 .7-.3 1.4-.4 2.2-.4zm0 8.1c.6 0 .9-.2 1.2-.6.2-.4.3-1 .3-1.9v-.7c0-1-.1-1.6-.3-2-.2-.3-.6-.5-1.1-.5-.6 0-1 .2-1.2.6-.2.4-.3 1-.3 1.9v.7c0 .8.1 1.5.3 1.9.1.4.5.6 1.1.6zm10-7.9h3.2l-9.8 17.7h-3.2l9.8-17.7zm3.5 7.4c.8 0 1.5.1 2.1.4.6.2 1 .6 1.4 1s.6.9.7 1.5c.1.6.2 1.2.2 2v.8c0 .7-.1 1.4-.2 2-.2.6-.4 1.1-.8 1.6-.3.4-.8.8-1.4 1-.6.2-1.2.4-2.1.4-.9 0-1.6-.1-2.2-.4-.6-.3-1-.6-1.4-1.1-.3-.4-.6-1-.7-1.6-.1-.6-.2-1.2-.2-1.9v-.8c0-.7.1-1.4.2-2 .2-.6.4-1.1.8-1.5.4-.4.8-.8 1.4-1 .7-.3 1.4-.4 2.2-.4zm0 8.1c.6 0 .9-.2 1.2-.6.2-.4.3-1 .3-1.9v-.7c0-1-.1-1.6-.3-2-.2-.3-.6-.5-1.1-.5-.6 0-1 .2-1.2.6-.2.4-.3 1-.3 1.9v.7c0 .8.1 1.4.3 1.9.1.3.5.6 1.1.6z"/></g><g><path class="st14" d="M345.4 622.3c.8 0 1.5.1 2.1.4.6.2 1 .6 1.4 1s.6.9.7 1.5c.1.6.2 1.2.2 2v.8c0 .7-.1 1.4-.2 2-.2.6-.4 1.1-.8 1.6s-.8.8-1.4 1c-.6.2-1.2.4-2.1.4-.9 0-1.6-.1-2.2-.4-.6-.3-1-.6-1.4-1.1-.3-.4-.6-1-.7-1.6-.1-.6-.2-1.2-.2-1.9v-.8c0-.7.1-1.4.2-2 .2-.6.4-1.1.8-1.5.4-.4.8-.8 1.4-1 .7-.2 1.4-.4 2.2-.4zm0 8.1c.6 0 .9-.2 1.2-.6.2-.4.3-1 .3-1.9v-.7c0-1-.1-1.6-.3-2-.2-.3-.6-.5-1.1-.5-.6 0-1 .2-1.2.6-.2.4-.3 1-.3 1.9v.7c0 .8.1 1.5.3 1.9.1.4.5.6 1.1.6zm10-7.9h3.2l-9.8 17.7h-3.2l9.8-17.7zm3.5 7.4c.8 0 1.5.1 2.1.4.6.2 1 .6 1.4 1s.6.9.7 1.5c.1.6.2 1.2.2 2v.8c0 .7-.1 1.4-.2 2-.2.6-.4 1.1-.8 1.6-.3.4-.8.8-1.4 1-.6.2-1.2.4-2.1.4-.9 0-1.6-.1-2.2-.4-.6-.3-1-.6-1.4-1.1-.3-.4-.6-1-.7-1.6-.1-.6-.2-1.2-.2-1.9v-.8c0-.7.1-1.4.2-2 .2-.6.4-1.1.8-1.5.4-.4.8-.8 1.4-1 .7-.3 1.4-.4 2.2-.4zm0 8.1c.6 0 .9-.2 1.2-.6.2-.4.3-1 .3-1.9v-.7c0-1-.1-1.6-.3-2-.2-.3-.6-.5-1.1-.5-.6 0-1 .2-1.2.6-.2.4-.3 1-.3 1.9v.7c0 .8.1 1.4.3 1.9.1.4.5.6 1.1.6z"/></g><g><path class="st14" d="M345.4 667.1c.8 0 1.5.1 2.1.4.6.2 1 .6 1.4 1 .3.4.6.9.7 1.5.1.6.2 1.3.2 2v.8c0 .7-.1 1.4-.2 2-.2.6-.4 1.1-.8 1.6s-.8.8-1.4 1c-.6.2-1.2.4-2.1.4-.9 0-1.6-.1-2.2-.4-.6-.3-1-.6-1.4-1.1-.3-.4-.6-1-.7-1.6-.1-.6-.2-1.2-.2-1.9v-.8c0-.7.1-1.4.2-2 .2-.6.4-1.1.8-1.5.4-.4.8-.8 1.4-1 .7-.3 1.4-.4 2.2-.4zm0 8.1c.6 0 .9-.2 1.2-.6.2-.4.3-1 .3-1.9v-.7c0-1-.1-1.6-.3-2-.2-.3-.6-.5-1.1-.5-.6 0-1 .2-1.2.6-.2.4-.3 1-.3 1.9v.7c0 .8.1 1.4.3 1.9.1.3.5.6 1.1.6zm10-7.9h3.2l-9.8 17.7h-3.2l9.8-17.7zm3.5 7.3c.8 0 1.5.1 2.1.4.6.2 1 .6 1.4 1 .3.4.6.9.7 1.5.1.6.2 1.3.2 2v.8c0 .7-.1 1.4-.2 2-.2.6-.4 1.1-.8 1.6s-.8.8-1.4 1c-.6.2-1.2.4-2.1.4-.9 0-1.6-.1-2.2-.4-.6-.3-1-.6-1.4-1.1-.3-.4-.6-1-.7-1.6-.1-.6-.2-1.2-.2-1.9v-.8c0-.7.1-1.4.2-2 .2-.6.4-1.1.8-1.5.4-.4.8-.8 1.4-1 .7-.3 1.4-.4 2.2-.4zm0 8.1c.6 0 .9-.2 1.2-.6.2-.4.3-1 .3-1.9v-.7c0-1-.1-1.6-.3-2-.2-.3-.6-.5-1.1-.5-.6 0-1 .2-1.2.6-.2.4-.3 1-.3 1.9v.7c0 .8.1 1.4.3 1.9.1.4.5.6 1.1.6z"/></g><g><path class="st14" d="M345.4 711.8c.8 0 1.5.1 2.1.4.6.2 1 .6 1.4 1s.6.9.7 1.5c.1.6.2 1.2.2 2v.8c0 .7-.1 1.4-.2 2-.2.6-.4 1.1-.8 1.6s-.8.8-1.4 1c-.6.2-1.2.4-2.1.4-.9 0-1.6-.1-2.2-.4-.6-.3-1-.6-1.4-1.1-.3-.4-.6-1-.7-1.6-.1-.6-.2-1.2-.2-1.9v-.8c0-.7.1-1.4.2-2s.4-1.1.8-1.5c.4-.4.8-.8 1.4-1 .7-.3 1.4-.4 2.2-.4zm0 8.1c.6 0 .9-.2 1.2-.6.2-.4.3-1 .3-1.9v-.7c0-1-.1-1.6-.3-2-.2-.3-.6-.5-1.1-.5-.6 0-1 .2-1.2.6-.2.4-.3 1-.3 1.9v.7c0 .8.1 1.5.3 1.9.1.4.5.6 1.1.6zm10-7.9h3.2l-9.8 17.7h-3.2l9.8-17.7zm3.5 7.4c.8 0 1.5.1 2.1.4.6.2 1 .6 1.4 1s.6.9.7 1.5c.1.6.2 1.2.2 2v.8c0 .7-.1 1.4-.2 2-.2.6-.4 1.1-.8 1.6-.3.4-.8.8-1.4 1-.6.2-1.2.4-2.1.4-.9 0-1.6-.1-2.2-.4-.6-.3-1-.6-1.4-1.1-.3-.4-.6-1-.7-1.6-.1-.6-.2-1.2-.2-1.9v-.8c0-.7.1-1.4.2-2s.4-1.1.8-1.5c.4-.4.8-.8 1.4-1 .7-.3 1.4-.4 2.2-.4zm0 8c.6 0 .9-.2 1.2-.6.2-.4.3-1 .3-1.9v-.7c0-1-.1-1.6-.3-2-.2-.3-.6-.5-1.1-.5-.6 0-1 .2-1.2.6-.2.4-.3 1-.3 1.9v.7c0 .8.1 1.4.3 1.9.1.4.5.6 1.1.6z"/></g><g><path class="st14" d="M60.1 575.7v1.9c.4 0 .9 0 1.3.1.4 0 .9.1 1.3.2s.8.1 1.2.2c.4.1.7.2 1 .3l-.7 2.9c-.7-.2-1.4-.3-2-.4-.6-.1-1.3-.1-2-.1v4.6l.6.1c.7.1 1.4.3 1.9.5.6.2 1.1.5 1.5.9.4.4.7.9.9 1.4.2.6.3 1.3.3 2v.3c0 1.5-.4 2.7-1.3 3.6-.9.9-2.2 1.4-4 1.6v2.2h-1.8v-2.1c-.9 0-1.8-.1-2.7-.3-.9-.2-1.8-.4-2.5-.7l.8-2.9 2.1.6c.7.1 1.5.2 2.3.3v-4.6l-.3-.1c-.8-.1-1.5-.3-2.1-.6s-1.1-.6-1.6-1c-.4-.4-.8-.9-1-1.4-.2-.6-.3-1.2-.3-2v-.3c0-1.6.5-2.8 1.4-3.7s2.2-1.4 3.8-1.5v-1.9h1.9zm-3.6 7.1c0 .7.1 1.1.4 1.4.3.3.7.5 1.3.7v-4.2c-.6.1-1.1.4-1.4.7-.2.4-.3.9-.3 1.4zm5.4 7.8c0-.6-.2-1.1-.5-1.4-.3-.3-.8-.5-1.4-.7v4.3c.6-.1 1.1-.3 1.4-.7.4-.3.5-.8.5-1.5z"/></g><g><path class="st14" d="M60.1 620.4v1.9c.4 0 .9 0 1.3.1.4 0 .9.1 1.3.2s.8.1 1.2.2c.4.1.7.2 1 .3l-.7 2.9c-.7-.2-1.4-.3-2-.4-.6-.1-1.3-.1-2-.1v4.6l.6.1c.7.1 1.4.3 1.9.5.6.2 1.1.5 1.5.9.4.4.7.9.9 1.4.2.6.3 1.3.3 2v.3c0 1.5-.4 2.7-1.3 3.6-.9.9-2.2 1.4-4 1.6v2.2h-1.8v-2.1c-.9 0-1.8-.1-2.7-.3s-1.8-.4-2.5-.7l.8-2.9 2.1.6c.7.2 1.5.2 2.3.3V633l-.3-.1c-.8-.1-1.5-.3-2.1-.6-.6-.2-1.1-.6-1.6-1-.4-.4-.8-.9-1-1.4-.2-.6-.3-1.2-.3-2v-.3c0-1.6.5-2.8 1.4-3.7s2.2-1.4 3.8-1.5v-1.9h1.9zm-3.6 7.1c0 .7.1 1.1.4 1.4.3.3.7.5 1.3.7v-4.2c-.6.1-1.1.4-1.4.7-.2.4-.3.9-.3 1.4zm5.4 7.8c0-.6-.2-1.1-.5-1.4-.3-.3-.8-.5-1.4-.7v4.3c.6-.1 1.1-.3 1.4-.7.4-.3.5-.8.5-1.5z"/></g><g><path class="st14" d="M60.1 665.2v1.9c.4 0 .9 0 1.3.1.4 0 .9.1 1.3.2s.8.1 1.2.2c.4.1.7.2 1 .3l-.7 2.9c-.7-.2-1.4-.3-2-.4-.6-.1-1.3-.1-2-.1v4.6l.6.1c.7.1 1.4.3 1.9.5.6.2 1.1.5 1.5.9.4.4.7.9.9 1.4.2.6.3 1.3.3 2.1v.3c0 1.5-.4 2.7-1.3 3.6-.9.9-2.2 1.4-4 1.6v2.2h-1.8v-2.1c-.9 0-1.8-.1-2.7-.3-.9-.2-1.8-.4-2.5-.7l.8-2.9 2.1.6c.7.1 1.5.2 2.3.3v-4.6H58c-.8-.1-1.5-.3-2.1-.6-.6-.2-1.1-.6-1.6-1-.4-.4-.8-.9-1-1.4-.2-.6-.3-1.2-.3-2v-.3c0-1.6.5-2.8 1.4-3.7s2.2-1.4 3.8-1.5v-1.9h1.9zm-3.6 7.1c0 .7.1 1.1.4 1.4.3.3.7.5 1.3.7v-4.2c-.6.1-1.1.4-1.4.7-.2.4-.3.8-.3 1.4zm5.4 7.8c0-.6-.2-1.1-.5-1.4-.3-.3-.8-.5-1.4-.7v4.3c.6-.1 1.1-.3 1.4-.7.4-.4.5-.9.5-1.5z"/></g><g><path class="st14" d="M60.1 709.9v1.9c.4 0 .9 0 1.3.1.4 0 .9.1 1.3.2s.8.1 1.2.2c.4.1.7.2 1 .3l-.7 2.9c-.7-.2-1.4-.3-2-.4-.6-.1-1.3-.1-2-.1v4.6l.6.1c.7.1 1.4.3 1.9.5.6.2 1.1.5 1.5.9.4.4.7.9.9 1.4.2.6.3 1.3.3 2v.3c0 1.5-.4 2.7-1.3 3.6-.9.9-2.2 1.4-4 1.6v2.2h-1.8v-2.1c-.9 0-1.8-.1-2.7-.3s-1.8-.4-2.5-.7l.8-2.9 2.1.6c.7.2 1.5.2 2.3.3v-4.6l-.3-.1c-.8-.1-1.5-.3-2.1-.6s-1.1-.6-1.6-1c-.4-.4-.8-.9-1-1.4-.2-.6-.3-1.2-.3-2v-.4c0-1.6.5-2.8 1.4-3.7s2.2-1.4 3.8-1.5v-1.9h1.9zm-3.6 7.1c0 .7.1 1.1.4 1.4.3.3.7.5 1.3.7V715c-.6.1-1.1.4-1.4.7-.2.3-.3.8-.3 1.3zm5.4 7.8c0-.6-.2-1.1-.5-1.4-.3-.3-.8-.5-1.4-.7v4.3c.6-.1 1.1-.3 1.4-.7.4-.4.5-.8.5-1.5z"/></g><path class="st8" d="M700.2 580.4h446.4v38.2H700.2z"/><path class="st9" d="M700.2 626.9h333v38.2h-333z"/><path class="st12" d="M700.2 673.3h534.1v38.2H700.2z"/><path class="st10" d="M673.3 544.1h8.2v203.8h-8.2z"/><path class="st10" d="M673 739.6h581.4v8.2H673z"/><path d="M796 322.3v33.9c-6.4 0-12.5 1.3-18.1 3.5L765 328.3c9.7-3.8 20.1-6 31-6z" fill="#ba9266"/><path class="st8" d="M854.5 347l-24.3 23.6c-8.6-8.9-20.7-14.4-34.1-14.4v-33.9c19.7 0 37.7 7 51.8 18.6 2.2 1.9 4.4 4 6.6 6.1z"/><path class="st9" d="M877.5 403.8c0 18.1-5.9 34.9-15.9 48.4L834.3 432c5.8-7.9 9.3-17.7 9.3-28.3 0-12.9-5.1-24.6-13.4-33.1l24.3-23.6c14.2 14.7 23 34.7 23 56.8z"/><path class="st12" d="M861.6 452.2c-7 9.5-16 17.4-26.4 23l-16.3-29.8c6.1-3.3 11.3-7.9 15.4-13.4l27.3 20.2z"/><path class="st6" d="M835.2 475.2c-11.6 6.4-25 10-39.1 10-45 0-81.5-36.5-81.5-81.4 0-4.6.4-9.2 1.1-13.6l33.5 5.7c-.5 2.6-.7 5.2-.7 7.9 0 26.2 21.3 47.5 47.5 47.5 8.3 0 16.1-2.1 22.8-5.8l16.4 29.7z"/><path d="M778 359.8c-15 6.1-26.1 19.7-28.8 36.1l-33.5-5.7c4.7-28.1 23.8-51.3 49.4-61.8l12.9 31.4z" fill="#a96ba7"/></svg>